<svg width="58" height="21" viewBox="0 0 58 21" fill="none" xmlns="http://www.w3.org/2000/svg"><path d="M0.32 20L9.536 8H0.864V5.92H13.824L4.608 17.92H14.24V20H0.32ZM19.2345 1.056C19.4905 1.344 19.6505 1.696 19.6505 2.08C19.6505 2.464 19.4905 2.816 19.2345 3.072C18.9465 3.36 18.5945 3.488 18.2105 3.488C17.8265 3.488 17.4745 3.36 17.2185 3.072C16.9305 2.816 16.8025 2.464 16.8025 2.08C16.8025 1.696 16.9305 1.344 17.2185 1.056C17.4745 0.799999 17.8265 0.639999 18.2105 0.639999C18.5945 0.639999 18.9465 0.799999 19.2345 1.056ZM19.3625 20H17.1225V5.92H19.3625V20ZM31.507 8.832C30.963 8.384 30.419 8.128 29.843 8.128C29.267 8.128 28.755 8.32 28.339 8.64C27.923 8.96 27.571 9.376 27.315 9.856C26.771 10.784 26.515 11.808 26.515 12.96V20H24.275V5.92H26.515V8.832L26.611 8.256C27.347 6.528 28.499 5.632 30.099 5.632C30.579 5.632 31.059 5.728 31.507 5.92V8.832ZM41.4445 8.832C40.9005 8.384 40.3565 8.128 39.7805 8.128C39.2045 8.128 38.6925 8.32 38.2765 8.64C37.8605 8.96 37.5085 9.376 37.2525 9.856C36.7085 10.784 36.4525 11.808 36.4525 12.96V20H34.2125V5.92H36.4525V8.832L36.5485 8.256C37.2845 6.528 38.4365 5.632 40.0365 5.632C40.5165 5.632 40.9965 5.728 41.4445 5.92V8.832ZM55.67 12.896C55.67 11.488 55.158 10.304 54.166 9.28C53.142 8.288 51.958 7.776 50.55 7.776C49.142 7.776 47.926 8.288 46.934 9.28C45.91 10.304 45.43 11.488 45.43 12.896C45.43 14.304 45.91 15.488 46.934 16.48C47.926 17.504 49.142 17.984 50.55 17.984C51.958 17.984 53.142 17.504 54.166 16.48C55.158 15.488 55.67 14.304 55.67 12.896ZM57.91 12.896C57.91 14.944 57.174 16.672 55.734 18.08C54.294 19.52 52.534 20.224 50.55 20.224C48.534 20.224 46.774 19.52 45.334 18.08C43.894 16.672 43.19 14.944 43.19 12.896C43.19 10.88 43.894 9.152 45.334 7.712C46.774 6.272 48.502 5.536 50.55 5.536C52.566 5.536 54.294 6.272 55.734 7.712C57.174 9.152 57.91 10.88 57.91 12.896Z" fill="black"></path></svg>